<svg xmlns="http://www.w3.org/2000/svg" xmlns:xlink="http://www.w3.org/1999/xlink" width="48" height="48" viewBox="0 0 48 48"><defs><style>.a,.d{fill:#1565d8;}.b{clip-path:url(#a);}.c{fill:#b4ccef;}.c,.d{fill-rule:evenodd;}</style><clipPath id="a"><rect class="a" width="48" height="48"/></clipPath></defs><g class="b"><path class="c" d="M16.67,13.13a9.3,9.3,0,0,1,4.66,7.74v6h6a2,2,0,0,0,2-2v-4c0-4.36-7.14-6.94-12.66-7.74" transform="translate(16.67 13.13)"/><path class="a" d="M13,4a8,8,0,1,1-8,8,8,8,0,0,1,8-8" transform="translate(5 4)"/><path class="c" d="M16.33,20a8,8,0,0,0,0-16,8.331,8.331,0,0,0-2.66.48,11.962,11.962,0,0,1,0,15.04,8.331,8.331,0,0,0,2.66.48" transform="translate(13.67 4)"/><path class="d" d="M17,13c-5.34,0-16,2.68-16,8v4a2,2,0,0,0,2,2H31a2,2,0,0,0,2-2V21c0-5.32-10.66-8-16-8" transform="translate(1 13)"/></g></svg>