<svg xmlns="http://www.w3.org/2000/svg" width="36" height="36" viewBox="0 0 36 36"><defs><style>.a{fill:#fff;}.b{fill:#c536a4;fill-rule:evenodd;}</style></defs><g transform="translate(-308.001 -14135)"><rect class="a" width="36" height="36" transform="translate(308.001 14135)"/><path class="b" d="M151.168,11.615a1.218,1.218,0,0,0-1.219,1.217v0a1.217,1.217,0,1,0,1.219-1.219" transform="translate(180 14135)"/><path class="b" d="M150.97,7.969h-9.937a5.062,5.062,0,0,0-5.063,5.062v9.938a5.062,5.062,0,0,0,5.063,5.062h9.937a5.064,5.064,0,0,0,5.063-5.062V13.031a5.064,5.064,0,0,0-5.063-5.062m2.876,15a2.879,2.879,0,0,1-2.876,2.878h-9.937a2.88,2.88,0,0,1-2.877-2.878V13.03a2.88,2.88,0,0,1,2.877-2.88h9.937a2.881,2.881,0,0,1,2.876,2.877Z" transform="translate(180 14135)"/><path class="b" d="M146.005,12.834A5.167,5.167,0,1,0,151.171,18a5.167,5.167,0,0,0-5.166-5.166M148.988,18a2.982,2.982,0,0,1-2.982,2.982h0A2.983,2.983,0,1,1,148.988,18Z" transform="translate(180 14135)"/></g></svg>