<svg xmlns="http://www.w3.org/2000/svg" xmlns:xlink="http://www.w3.org/1999/xlink" width="343.3" height="99.084" viewBox="0 0 343.3 99.084"><defs><style>.a{fill:none;}.b{fill:#104ca1;}.c{fill:#1565d8;}.d{clip-path:url(#a);}.e{fill:#fff;}</style><clipPath id="a"><rect class="a" width="215.162" height="82.926"/></clipPath></defs><g transform="translate(-180 -13869.463)"><g transform="translate(180 13869.463)"><path class="b" d="M112.384,25.7l5.42,40.842L88.793,45.361,0,0,68.681,6.287s34.988,8.5,36.882,10.214,6.821,9.2,6.821,9.2" transform="translate(0 0.001)"/><path class="c" d="M142.8,1.042,0,0,112.384,25.705Z" transform="translate(0 0.001)"/><path class="c" d="M66.48,66.794,103.9,36.739,0,0Z" transform="translate(0 0.001)"/></g><g transform="translate(308.137 13885.621)"><g class="d" transform="translate(0 0)"><path class="e" d="M0,60.639l2.128-2.607q1.077.88,2.183,1.727a87.378,87.378,0,0,0,7.905,5.387c2.524,1.525,5.173,2.953,7.878,4.242L18.65,72.424c-2.8-1.337-5.552-2.818-8.172-4.4a90.334,90.334,0,0,1-8.211-5.6C1.521,61.857.758,61.253,0,60.635M40.2,76.441A124.426,124.426,0,0,0,61.357,79.57l-.213,3.356A127.9,127.9,0,0,1,39.412,79.71ZM120.119,7.773c1.22-2.02,5.25-6.237,9.479-7.3a17.784,17.784,0,0,1,10.127.6l-1.091,3.181a14.248,14.248,0,0,0-8.208-.515c-3.049.773-6.455,4.174-7.427,5.783a1.86,1.86,0,0,0-.164.315c-.038.162-.078.362-.118.56l-3.3-.657c.045-.227.092-.452.145-.678a4.361,4.361,0,0,1,.557-1.278M82.811,79.351a171.479,171.479,0,0,0,21.266-3.087l.689,3.291A175.073,175.073,0,0,1,83.081,82.7Zm41.4-47.691,2.816-1.839A31.076,31.076,0,0,0,131,34.727a37.549,37.549,0,0,0,7.2,5.611,45.232,45.232,0,0,0,4.67,2.45l-1.389,3.062a48.579,48.579,0,0,1-5.019-2.635,40.927,40.927,0,0,1-7.845-6.119,34.461,34.461,0,0,1-4.4-5.442m28.221-13.585,3.172-1.12a33.832,33.832,0,0,1-.28,21.939l-.171.483-3.163-1.14.158-.446a30.408,30.408,0,0,0,.285-19.715M123.652,68.181c5.628-3,9.853-5.618,11.588-7.2,1.992-1.81,3.746-3.527,5.376-5.252l2.449,2.3c-1.685,1.79-3.5,3.569-5.561,5.438-2.65,2.4-8.826,5.844-12.271,7.676Zm39.642-20.393a71.839,71.839,0,0,0,21.084-1.466l.723,3.284a75.185,75.185,0,0,1-22.07,1.533Z" transform="translate(0 0)"/><path class="e" d="M234.155,43.59a64.934,64.934,0,0,0,8.925-6.09l2.129,2.6a68.273,68.273,0,0,1-9.386,6.409Z" transform="translate(-30.046 -4.812)"/></g></g></g></svg>