<svg xmlns="http://www.w3.org/2000/svg" width="48" height="48" viewBox="0 0 48 48"><defs><style>.a{fill:none;}.b{fill:#b4ccef;}.c{fill:#1565d8;}</style></defs><path class="a" d="M0,0H48V48H0Z"/><path class="b" d="M33.95,41H9.967A9.978,9.978,0,0,1,0,31.033V19a2,2,0,0,1,4,0V31.033A5.974,5.974,0,0,0,9.967,37H33.95a2,2,0,0,1,0,4" transform="translate(3 4)"/><path class="c" d="M25,4.005h0a4,4,0,0,1,4,4H21a4,4,0,0,1,4-4m6.015,16.587a1,1,0,0,1-.3.333l-8.14,5.92a.99.99,0,0,1-1.58-.8V15.685a1,1,0,0,1,1.48-.88l8.14,4.44a.993.993,0,0,1,.4,1.347M39,8H33A8,8,0,0,0,17,8H11a4.012,4.012,0,0,0-4,4V30a4,4,0,0,0,4,4H39a4.012,4.012,0,0,0,4-4V12a4.025,4.025,0,0,0-4-4" transform="translate(3 4)"/></svg>