<svg xmlns="http://www.w3.org/2000/svg" width="48" height="48" viewBox="0 0 48 48"><defs><style>.a{fill:none;}.b{fill:#1565d8;}.c{fill:#b4ccef;}</style></defs><path class="a" d="M0,0H48V48H0ZM0,0H48V48H0Z"/><path class="b" d="M24.24.888,13.16,11.972A4,4,0,0,0,12,14.788v19.98a4.013,4.013,0,0,0,4,4H34a4.028,4.028,0,0,0,3.68-2.42l6.52-15.22a6.009,6.009,0,0,0-5.52-8.36H27.38l1.9-9.16a3.014,3.014,0,0,0-.82-2.74,2.976,2.976,0,0,0-4.208.008Z" transform="translate(2 3)"/><path class="c" d="M4,38.771a4.012,4.012,0,0,0,4-4v-16a4,4,0,0,0-8,0v16a4.011,4.011,0,0,0,4,4" transform="translate(2 3)"/></svg>