<svg xmlns="http://www.w3.org/2000/svg" width="36" height="36" viewBox="0 0 36 36"><defs><style>.a{fill:#fff;}.b{fill:#50abf1;fill-rule:evenodd;}</style></defs><g transform="translate(-244 -14135)"><rect class="a" width="36" height="36" transform="translate(244 14135)"/><path class="b" d="M90.957,13.428c.006.18.01.36.01.541A13.172,13.172,0,0,1,77.8,27.142h-.007A13.169,13.169,0,0,1,70.75,25.1a8.878,8.878,0,0,0,6.789-1.94,4.555,4.555,0,0,1-4.248-3.228,4.216,4.216,0,0,0,2.039-.085,4.393,4.393,0,0,1-3.653-4.59,4.742,4.742,0,0,0,2,.594c-3.526-3.1-1.318-6.119-1.318-6.119a13.919,13.919,0,0,0,9.488,4.8A4.622,4.622,0,0,1,85.3,8.979h0a4.624,4.624,0,0,1,4.425,1.344q.353-.1.677-.209a15.715,15.715,0,0,0,2.244-.935,4.9,4.9,0,0,1-2.007,2.566,10.711,10.711,0,0,0,2.616-.679,10.368,10.368,0,0,1-2.294,2.362Z" transform="translate(180 14135)"/></g></svg>