<svg xmlns="http://www.w3.org/2000/svg" xmlns:xlink="http://www.w3.org/1999/xlink" width="48" height="48" viewBox="0 0 48 48"><defs><style>.a{fill:#1565d8;}.b{fill:none;}.c{clip-path:url(#a);}</style><clipPath id="a"><rect class="a" width="44" height="41.05" transform="translate(0 0)"/></clipPath></defs><path class="b" d="M0,0H48V48H0Z"/><g transform="translate(2 3)"><g class="c"><path class="a" d="M37,9.049H30.8V8.8a8.8,8.8,0,0,0-17.6,0v.25H7a7,7,0,0,0-7,7v18a7,7,0,0,0,7,7H37a7,7,0,0,0,7-7v-18a7,7,0,0,0-7-7M17.6,8.942a4.372,4.372,0,0,1,2.96-4.193,4.43,4.43,0,0,1,4.55,1.061A4.382,4.382,0,0,1,26.4,8.92v.129H17.6Z"/></g></g></svg>