<svg xmlns="http://www.w3.org/2000/svg" width="36" height="36" viewBox="0 0 36 36"><defs><style>.a{fill:#fff;}.b{fill:#fd0d1b;}</style></defs><g transform="translate(-370.998 -14135)"><rect class="a" width="36" height="36" transform="translate(370.998 14135)"/><path class="b" d="M209,25c-.063,0-6.271-.005-7.813-.417a2.5,2.5,0,0,1-1.769-1.768,27.847,27.847,0,0,1,0-9.628,2.5,2.5,0,0,1,1.767-1.767C202.728,11.006,208.936,11,209,11s6.272,0,7.814.418a2.5,2.5,0,0,1,1.767,1.767,27.9,27.9,0,0,1,0,9.628,2.5,2.5,0,0,1-1.767,1.768c-1.541.412-7.749.417-7.812.417m-2-10h0v6l5.2-3Z" transform="translate(180 14135)"/></g></svg>